<?xml version="1.0" encoding="UTF-8"?>
<svg id="Capa_1" data-name="Capa 1" xmlns="http://www.w3.org/2000/svg" viewBox="0 0 2074.59 2000">
  <defs>
    <style>
      .cls-1 {
        fill: #fff;
      }
    </style>
  </defs>
  <path class="cls-1" d="m1037.24,1096.21h0c-43.53,0-84.46-16.96-115.23-47.74l-339.14-339.19c-30.79-30.79-47.74-71.73-47.72-115.26,0-43.54,16.97-84.46,47.77-115.24l144.53-144.41c63.47-63.41,166.79-63.46,230.3-.09l79.53,79.5,79.53-79.49c63.53-63.51,166.91-63.51,230.44.02l144.49,144.48c30.78,30.78,47.73,71.71,47.73,115.24s-16.95,84.46-47.73,115.24l-339.25,339.22c-30.78,30.78-71.71,47.73-115.23,47.73Zm-194.6-692.28c-11.72,0-23.44,4.45-32.35,13.36l-144.52,144.41c-8.64,8.63-13.4,20.12-13.4,32.34,0,12.22,4.75,23.7,13.39,32.35l339.14,339.19c8.64,8.63,20.13,13.39,32.34,13.4h0c12.22,0,23.7-4.76,32.34-13.4l339.25-339.22c8.64-8.64,13.4-20.13,13.4-32.34s-4.76-23.7-13.4-32.34l-144.49-144.48c-17.83-17.83-46.83-17.82-64.67,0l-218.34,218.24-82.87-82.91,55.9-55.88-79.45-79.42c-8.88-8.86-20.57-13.3-32.25-13.3Z"/>
  <g>
    <polygon class="cls-1" points="503.25 1660.42 500.97 1664.09 498.57 1660.42 471.71 1628.93 456.97 1628.93 456.97 1711.81 477.54 1711.81 477.54 1662.32 479.14 1665.16 498.45 1688.96 503.48 1688.96 522.79 1665.16 524.28 1662.43 524.28 1711.81 544.84 1711.81 544.84 1628.93 530.1 1628.93 503.25 1660.42"/>
    <path class="cls-1" d="m629.95,1676.29c0,11.6-7.66,17.76-16.91,17.76s-17.14-6.16-17.14-17.76v-47.36h-20.68v47.6c0,23.2,16.11,36.82,37.82,36.82s37.59-13.62,37.59-36.82v-47.6h-20.68v47.36Z"/>
    <polygon class="cls-1" points="737 1677.35 735.4 1674.28 698.95 1628.93 681.01 1628.93 681.01 1711.81 701.58 1711.81 701.58 1659.71 703.18 1662.91 742.37 1711.81 757.57 1711.81 757.57 1628.93 737 1628.93 737 1677.35"/>
    <rect class="cls-1" x="788.29" y="1628.93" width="20.57" height="82.88"/>
    <path class="cls-1" d="m881.63,1693.81c-14.05,0-23.88-9.71-23.88-23.68s9.37-23.45,22.97-23.45c8.34,0,15.2,4.03,19.65,9.24l14.17-13.5c-6.4-8.29-18.85-14.92-34.05-14.92-24.91,0-43.88,18.11-43.88,42.74s20.23,42.98,44.33,42.98c15.77,0,27.77-7.34,35.08-16.34l-12.57-13.5c-7.31,7.46-14.05,10.42-21.82,10.42Z"/>
    <rect class="cls-1" x="944.92" y="1628.93" width="20.57" height="82.88"/>
    <path class="cls-1" d="m1035.07,1628.93h-38.96v82.88h20.57v-23.09h16.45c20.45,0,31.65-14.44,31.65-29.72,0-18-10.63-30.07-29.71-30.07Zm-2.63,41.91h-15.77v-23.33h16c7.77,0,11.2,3.43,11.2,11.48,0,5.21-2.4,11.84-11.43,11.84Z"/>
    <path class="cls-1" d="m1111.72,1628.93l-35.54,82.88h22.17l4.8-12.31h36.91l4.8,12.31h22.28l-35.54-82.88h-19.88Zm-1.49,52.69l9.48-24.15,1.94-5.45,1.94,5.45,9.48,24.15h-22.85Z"/>
    <polygon class="cls-1" points="1210.77 1628.93 1190.2 1628.93 1190.2 1711.81 1248.82 1711.81 1248.82 1693.22 1210.77 1693.22 1210.77 1628.93"/>
    <rect class="cls-1" x="1275.89" y="1628.93" width="20.57" height="82.88"/>
    <path class="cls-1" d="m1363.98,1628.93h-36.91v82.88h37.37c24.8,0,42.73-15.39,42.73-41.68s-18.05-41.2-43.19-41.2Zm.34,64.29h-16.68v-45.82h16.23c8.22,0,22.28.71,22.28,22.85s-14.4,22.97-21.82,22.97Z"/>
    <path class="cls-1" d="m1459.03,1628.93l-35.53,82.88h22.17l4.8-12.31h36.91l4.8,12.31h22.28l-35.53-82.88h-19.88Zm-1.48,52.69l9.48-24.15,1.94-5.45,1.94,5.45,9.48,24.15h-22.85Z"/>
    <path class="cls-1" d="m1574.42,1628.93h-36.91v82.88h37.36c24.8,0,42.73-15.39,42.73-41.68s-18.05-41.2-43.19-41.2Zm.34,64.29h-16.68v-45.82h16.22c8.23,0,22.28.71,22.28,22.85s-14.4,22.97-21.82,22.97Z"/>
    <path class="cls-1" d="m636.19,1484.93c-8.72,6.38-21.4,9.59-38.06,9.59-38.88,0-67.54-15.12-85.93-45.37l-55.23,37.93c12.01,23.2,30.06,41.65,54.14,55.34,24.08,13.69,52.94,20.52,86.54,20.52,41.14,0,72.67-9.41,94.59-28.2,21.93-18.82,32.9-44.39,32.9-76.71,0-24.64-6.8-44.81-20.41-60.49-13.61-15.68-36.01-29.45-67.22-41.3-8.32-3.35-18.18-6.96-29.53-10.82l-24.51-8.4c-7.04-3.19-12.15-5.58-15.36-7.2-4.94-3.19-8.4-6.62-10.31-10.31-1.91-3.67-2.87-8.48-2.87-14.41,0-8.16,3.8-14.83,11.4-20.04,7.6-5.21,17.54-7.81,29.87-7.81,27.38,0,47.87,8.8,61.48,26.42l50.63-38.41c-26.55-37.29-64.56-55.95-114.02-55.95-32,0-59.06,8.88-81.14,26.66-21.93,17.12-32.9,40.48-32.9,70.09,0,24.98,6.86,45.21,20.55,60.73,13.69,15.55,34.53,28.41,62.54,38.67,3.19,1.28,9.54,3.64,19.08,7.07,9.52,3.46,15.71,5.74,18.61,6.86,11.35,2.87,21.21,7.12,29.53,12.7,12.49,7.68,18.71,17.22,18.71,28.57,0,9.78-4.36,17.86-13.08,24.27Z"/>
    <path class="cls-1" d="m950.44,1557.41h65.06v-247.74h-73.22v32.4c-3.85-10.87-12.49-19.77-25.94-26.66-13.45-6.86-29.45-10.31-48-10.31-35.06,0-64.35,12.49-87.87,37.45-23.39,24.82-35.06,55.15-35.06,91.01s11.67,66.66,35.06,91.94c23.52,24.48,52.81,36.73,87.87,36.73,38.57,0,65.92-11.93,82.1-35.78v30.96Zm-23.04-79.68c-12.33,11.83-27.54,17.75-45.64,17.75s-32.56-5.93-44.89-17.75c-12.15-12.17-18.23-26.9-18.23-44.17s6.09-32.03,18.23-43.7c12.17-12.17,27.14-18.26,44.89-18.26s33.46,6.09,45.64,18.26c12.78,11.83,19.19,26.39,19.19,43.7s-6.41,31.84-19.19,44.17Z"/>
    <polygon class="cls-1" points="1135.68 1557.52 1135.68 1434.96 1135.68 1214.84 1062.45 1214.84 1062.45 1434.96 1062.45 1476.74 1062.45 1557.52 1107.61 1557.52 1135.68 1557.52"/>
    <polygon class="cls-1" points="1277.73 1214.84 1206.44 1214.84 1206.44 1309.67 1162.79 1309.67 1162.79 1375.93 1206.44 1375.93 1206.44 1557.52 1277.73 1557.52 1277.73 1375.93 1321.49 1375.93 1321.49 1309.67 1277.73 1309.67 1277.73 1214.84"/>
    <path class="cls-1" d="m1465.94,1562.22c38.57,0,65.94-11.93,82.1-35.78v31.07h65.07v-247.85h-73.22v32.4c-3.85-10.87-12.49-19.77-25.94-26.66-13.45-6.86-29.45-10.31-48-10.31-35.06,0-64.35,12.49-87.87,37.45-23.39,24.82-35.06,55.15-35.06,91.01s11.67,66.66,35.06,91.94c23.52,24.48,52.81,36.73,87.87,36.73Zm-31.47-172.36c12.17-12.17,27.14-18.26,44.89-18.26s33.46,6.09,45.64,18.26c12.78,11.83,19.19,26.39,19.19,43.7s-6.41,31.84-19.19,44.17c-12.33,11.83-27.54,17.75-45.64,17.75s-32.56-5.93-44.89-17.75c-12.15-12.17-18.23-26.9-18.23-44.17s6.09-32.03,18.23-43.7Z"/>
  </g>
</svg>